<svg xmlns="http://www.w3.org/2000/svg" xmlns:xlink="http://www.w3.org/1999/xlink" width="299" zoomAndPan="magnify" viewBox="0 0 224.25 297.749991" height="397" preserveAspectRatio="xMidYMid meet" version="1.0"><defs><clipPath id="529747eec9"><path d="M 125 0.371094 L 171 0.371094 L 171 65 L 125 65 Z M 125 0.371094 " clip-rule="nonzero"/></clipPath><clipPath id="924dcebbd3"><path d="M 52 0.371094 L 98 0.371094 L 98 65 L 52 65 Z M 52 0.371094 " clip-rule="nonzero"/></clipPath><clipPath id="10e35d0946"><path d="M 0 41 L 222.753906 41 L 222.753906 296.382812 L 0 296.382812 Z M 0 41 " clip-rule="nonzero"/></clipPath><clipPath id="2cf57353dc"><path d="M 125 0.371094 L 171 0.371094 L 171 65 L 125 65 Z M 125 0.371094 " clip-rule="nonzero"/></clipPath><clipPath id="5ddfca8386"><path d="M 52 0.371094 L 98 0.371094 L 98 65 L 52 65 Z M 52 0.371094 " clip-rule="nonzero"/></clipPath><clipPath id="041b17bced"><path d="M 0 41 L 222.753906 41 L 222.753906 296.382812 L 0 296.382812 Z M 0 41 " clip-rule="nonzero"/></clipPath></defs><g clip-path="url(#529747eec9)"><path fill="#e2b808" d="M 137.289062 58.589844 C 137.222656 61.722656 134.5 64.214844 131.210938 64.152344 C 127.917969 64.089844 125.296875 61.5 125.363281 58.367188 C 125.363281 58.367188 125.742188 26.082031 160.808594 1.515625 C 163.460938 -0.339844 167.195312 0.199219 169.148438 2.726562 C 171.097656 5.25 170.527344 8.804688 167.878906 10.664062 C 138.132812 31.5 137.289062 58.589844 137.289062 58.589844 Z M 137.289062 58.589844 " fill-opacity="1" fill-rule="evenodd"/></g><g clip-path="url(#924dcebbd3)"><path fill="#e2b808" d="M 85.621094 58.589844 C 85.683594 61.722656 88.410156 64.214844 91.699219 64.152344 C 94.992188 64.089844 97.609375 61.5 97.546875 58.367188 C 97.546875 58.367188 97.167969 26.082031 62.101562 1.515625 C 59.449219 -0.339844 55.710938 0.199219 53.761719 2.726562 C 51.8125 5.25 52.378906 8.804688 55.03125 10.664062 C 84.777344 31.5 85.621094 58.589844 85.621094 58.589844 Z M 85.621094 58.589844 " fill-opacity="1" fill-rule="evenodd"/></g><g clip-path="url(#10e35d0946)"><path fill="#e2b808" d="M 115.089844 42.386719 L 219.273438 102.535156 C 221.523438 103.835938 222.910156 106.234375 222.910156 108.832031 L 222.910156 229.132812 C 222.910156 231.730469 221.523438 234.132812 219.273438 235.429688 L 115.089844 295.582031 C 112.839844 296.878906 110.070312 296.878906 107.816406 295.582031 L 3.636719 235.429688 C 1.386719 234.132812 0 231.730469 0 229.132812 L 0 108.832031 C 0 106.234375 1.386719 103.835938 3.636719 102.535156 L 107.816406 42.386719 C 110.070312 41.085938 112.839844 41.085938 115.089844 42.386719 Z M 111.453125 57.082031 L 14.542969 113.03125 L 14.542969 224.933594 L 111.453125 280.886719 L 208.367188 224.933594 L 208.367188 113.03125 Z M 111.453125 57.082031 " fill-opacity="1" fill-rule="evenodd"/></g><path fill="#007a3f" d="M 143.507812 172.976562 C 141.347656 168.753906 144.441406 168.082031 146.527344 168.648438 C 166.132812 173.996094 182.152344 175.871094 198.375 177.722656 L 198.375 219.167969 L 111.453125 269.351562 L 24.535156 219.167969 L 24.535156 162.386719 C 46.632812 155.945312 78.328125 143.527344 115.8125 158.328125 C 119.191406 159.664062 125.632812 162.03125 125.632812 162.03125 C 125.632812 162.03125 130.585938 163.601562 126.292969 172.308594 C 120.636719 183.78125 116.050781 193.347656 116.144531 203.136719 C 116.242188 213.378906 124.460938 221.699219 134.707031 221.699219 C 144.949219 221.699219 153.558594 213.375 153.265625 203.136719 C 152.996094 193.664062 149.03125 183.765625 143.507812 172.976562 Z M 143.507812 172.976562 " fill-opacity="1" fill-rule="evenodd"/><g clip-path="url(#2cf57353dc)"><path fill="#e2b808" d="M 137.289062 58.589844 C 137.222656 61.722656 134.5 64.214844 131.210938 64.152344 C 127.917969 64.089844 125.296875 61.5 125.363281 58.367188 C 125.363281 58.367188 125.742188 26.082031 160.808594 1.515625 C 163.460938 -0.339844 167.195312 0.199219 169.148438 2.726562 C 171.097656 5.25 170.527344 8.804688 167.878906 10.664062 C 138.132812 31.5 137.289062 58.589844 137.289062 58.589844 Z M 137.289062 58.589844 " fill-opacity="1" fill-rule="evenodd"/></g><g clip-path="url(#5ddfca8386)"><path fill="#e2b808" d="M 85.621094 58.589844 C 85.683594 61.722656 88.410156 64.214844 91.699219 64.152344 C 94.992188 64.089844 97.609375 61.5 97.546875 58.367188 C 97.546875 58.367188 97.167969 26.082031 62.101562 1.515625 C 59.449219 -0.339844 55.710938 0.199219 53.761719 2.726562 C 51.8125 5.25 52.378906 8.804688 55.03125 10.664062 C 84.777344 31.5 85.621094 58.589844 85.621094 58.589844 Z M 85.621094 58.589844 " fill-opacity="1" fill-rule="evenodd"/></g><g clip-path="url(#041b17bced)"><path fill="#e2b808" d="M 115.089844 42.386719 L 219.273438 102.535156 C 221.523438 103.835938 222.910156 106.234375 222.910156 108.832031 L 222.910156 229.132812 C 222.910156 231.730469 221.523438 234.132812 219.273438 235.429688 L 115.089844 295.582031 C 112.839844 296.878906 110.070312 296.878906 107.816406 295.582031 L 3.636719 235.429688 C 1.386719 234.132812 0 231.730469 0 229.132812 L 0 108.832031 C 0 106.234375 1.386719 103.835938 3.636719 102.535156 L 107.816406 42.386719 C 110.070312 41.085938 112.839844 41.085938 115.089844 42.386719 Z M 111.453125 57.082031 L 14.542969 113.03125 L 14.542969 224.933594 L 111.453125 280.886719 L 208.367188 224.933594 L 208.367188 113.03125 Z M 111.453125 57.082031 " fill-opacity="1" fill-rule="evenodd"/></g><path fill="#007a3f" d="M 143.507812 172.976562 C 141.347656 168.753906 144.441406 168.082031 146.527344 168.648438 C 166.132812 173.996094 182.152344 175.871094 198.375 177.722656 L 198.375 219.167969 L 111.453125 269.351562 L 24.535156 219.167969 L 24.535156 162.386719 C 46.632812 155.945312 78.328125 143.527344 115.8125 158.328125 C 119.191406 159.664062 125.632812 162.03125 125.632812 162.03125 C 125.632812 162.03125 130.585938 163.601562 126.292969 172.308594 C 120.636719 183.78125 116.050781 193.347656 116.144531 203.136719 C 116.242188 213.378906 124.460938 221.699219 134.707031 221.699219 C 144.949219 221.699219 153.558594 213.375 153.265625 203.136719 C 152.996094 193.664062 149.03125 183.765625 143.507812 172.976562 Z M 143.507812 172.976562 " fill-opacity="1" fill-rule="evenodd"/></svg>