<svg xmlns="http://www.w3.org/2000/svg" xmlns:xlink="http://www.w3.org/1999/xlink" width="569" zoomAndPan="magnify" viewBox="0 0 426.75 423.74999" height="565" preserveAspectRatio="xMidYMid meet" version="1.0"><defs><g/><clipPath id="0b3a1288cb"><path d="M 101.300781 41 L 324.671875 41 L 324.671875 296.824219 L 101.300781 296.824219 Z M 101.300781 41 " clip-rule="nonzero"/></clipPath><clipPath id="9ba17e71ee"><rect x="0" width="393" y="0" height="98"/></clipPath></defs><path fill="#000000" d="M 238.96875 58.375 C 238.90625 61.519531 236.171875 64.019531 232.875 63.957031 C 229.570312 63.894531 226.945312 61.292969 227.011719 58.152344 C 227.011719 58.152344 227.390625 25.78125 262.550781 1.148438 C 265.210938 -0.714844 268.957031 -0.171875 270.914062 2.359375 C 272.871094 4.890625 272.300781 8.457031 269.640625 10.320312 C 239.816406 31.214844 238.96875 58.375 238.96875 58.375 Z M 238.96875 58.375 " fill-opacity="1" fill-rule="evenodd"/><path fill="#000000" d="M 187.15625 58.375 C 187.222656 61.519531 189.953125 64.019531 193.253906 63.957031 C 196.554688 63.894531 199.179688 61.292969 199.117188 58.152344 C 199.117188 58.152344 198.738281 25.78125 163.574219 1.148438 C 160.914062 -0.714844 157.167969 -0.171875 155.210938 2.359375 C 153.257812 4.890625 153.828125 8.457031 156.484375 10.320312 C 186.3125 31.214844 187.15625 58.375 187.15625 58.375 Z M 187.15625 58.375 " fill-opacity="1" fill-rule="evenodd"/><g clip-path="url(#0b3a1288cb)"><path fill="#000000" d="M 216.710938 42.128906 L 321.179688 102.445312 C 323.4375 103.75 324.824219 106.15625 324.824219 108.761719 L 324.824219 229.390625 C 324.824219 231.996094 323.4375 234.40625 321.179688 235.707031 L 216.710938 296.023438 C 214.453125 297.324219 211.675781 297.324219 209.417969 296.023438 L 104.949219 235.707031 C 102.691406 234.40625 101.300781 231.996094 101.300781 229.390625 L 101.300781 108.761719 C 101.300781 106.15625 102.691406 103.75 104.949219 102.445312 L 209.417969 42.128906 C 211.675781 40.828125 214.453125 40.828125 216.710938 42.128906 Z M 213.0625 56.863281 L 115.886719 112.96875 L 115.886719 225.183594 L 213.0625 281.289062 L 310.242188 225.183594 L 310.242188 112.96875 Z M 213.0625 56.863281 " fill-opacity="1" fill-rule="evenodd"/></g><path fill="#007a3f" d="M 245.207031 173.082031 C 243.039062 168.84375 246.144531 168.171875 248.234375 168.742188 C 267.890625 174.105469 283.957031 175.980469 300.222656 177.839844 L 300.222656 219.398438 L 213.0625 269.71875 L 125.90625 219.398438 L 125.90625 162.460938 C 148.0625 156.003906 179.847656 143.546875 217.433594 158.390625 C 220.820312 159.730469 227.28125 162.105469 227.28125 162.105469 C 227.28125 162.105469 232.25 163.679688 227.945312 172.410156 C 222.273438 183.917969 217.671875 193.507812 217.765625 203.324219 C 217.863281 213.59375 226.105469 221.933594 236.378906 221.933594 C 246.652344 221.933594 255.285156 213.589844 254.992188 203.324219 C 254.71875 193.824219 250.742188 183.898438 245.207031 173.082031 Z M 245.207031 173.082031 " fill-opacity="1" fill-rule="evenodd"/><g transform="matrix(1, 0, 0, 1, 17, 315)"><g clip-path="url(#9ba17e71ee)"><g fill="#000000" fill-opacity="1"><g transform="translate(0.171768, 75.315278)"><g><path d="M 22.21875 0.71875 C 18.738281 0.71875 15.644531 0.289062 12.9375 -0.5625 C 10.226562 -1.414062 7.972656 -2.539062 6.171875 -3.9375 C 4.367188 -5.332031 2.984375 -6.863281 2.015625 -8.53125 L 7.46875 -15.1875 L 8.328125 -15.1875 C 9.835938 -12.945312 11.753906 -11.164062 14.078125 -9.84375 C 16.398438 -8.519531 19.113281 -7.859375 22.21875 -7.859375 C 24.863281 -7.859375 26.859375 -8.414062 28.203125 -9.53125 C 29.554688 -10.65625 30.234375 -12.195312 30.234375 -14.15625 C 30.234375 -15.34375 30.015625 -16.335938 29.578125 -17.140625 C 29.148438 -17.941406 28.429688 -18.628906 27.421875 -19.203125 C 26.421875 -19.773438 25.0625 -20.265625 23.34375 -20.671875 L 16.90625 -22.15625 C 12.40625 -23.175781 9.050781 -24.878906 6.84375 -27.265625 C 4.632812 -29.660156 3.53125 -32.765625 3.53125 -36.578125 C 3.53125 -39.410156 4.238281 -41.898438 5.65625 -44.046875 C 7.070312 -46.203125 9.132812 -47.875 11.84375 -49.0625 C 14.550781 -50.25 17.789062 -50.84375 21.5625 -50.84375 C 25.425781 -50.84375 28.734375 -50.332031 31.484375 -49.3125 C 34.242188 -48.300781 36.570312 -46.742188 38.46875 -44.640625 L 33.5625 -37.921875 L 32.703125 -37.921875 C 31.285156 -39.410156 29.660156 -40.523438 27.828125 -41.265625 C 26.003906 -42.003906 23.914062 -42.375 21.5625 -42.375 C 18.84375 -42.375 16.773438 -41.894531 15.359375 -40.9375 C 13.941406 -39.976562 13.234375 -38.648438 13.234375 -36.953125 C 13.234375 -35.378906 13.726562 -34.125 14.71875 -33.1875 C 15.71875 -32.25 17.441406 -31.519531 19.890625 -31 L 26.46875 -29.625 C 31.332031 -28.59375 34.863281 -26.847656 37.0625 -24.390625 C 39.257812 -21.929688 40.359375 -18.726562 40.359375 -14.78125 C 40.359375 -11.644531 39.679688 -8.914062 38.328125 -6.59375 C 36.984375 -4.28125 34.953125 -2.484375 32.234375 -1.203125 C 29.515625 0.078125 26.175781 0.71875 22.21875 0.71875 Z M 22.21875 0.71875 "/></g></g></g><g fill="#000000" fill-opacity="1"><g transform="translate(43.228438, 75.315278)"><g><path d="M 22.046875 0.71875 C 18.390625 0.71875 15.15625 -0.0390625 12.34375 -1.5625 C 9.53125 -3.082031 7.332031 -5.316406 5.75 -8.265625 C 4.175781 -11.210938 3.390625 -14.753906 3.390625 -18.890625 C 3.390625 -23.046875 4.175781 -26.597656 5.75 -29.546875 C 7.332031 -32.503906 9.515625 -34.738281 12.296875 -36.25 C 15.085938 -37.769531 18.28125 -38.53125 21.875 -38.53125 C 29.851562 -38.53125 34.960938 -35.640625 37.203125 -29.859375 L 30.6875 -25.203125 L 29.96875 -25.203125 C 29.1875 -26.984375 28.171875 -28.304688 26.921875 -29.171875 C 25.679688 -30.046875 24 -30.484375 21.875 -30.484375 C 19.132812 -30.484375 17 -29.535156 15.46875 -27.640625 C 13.9375 -25.742188 13.171875 -22.828125 13.171875 -18.890625 C 13.171875 -15.003906 13.945312 -12.109375 15.5 -10.203125 C 17.050781 -8.296875 19.234375 -7.34375 22.046875 -7.34375 C 24.097656 -7.34375 25.835938 -7.894531 27.265625 -9 C 28.703125 -10.101562 29.726562 -11.695312 30.34375 -13.78125 L 31.0625 -13.859375 L 37.8125 -10.15625 C 36.851562 -6.945312 35.078125 -4.332031 32.484375 -2.3125 C 29.890625 -0.289062 26.410156 0.71875 22.046875 0.71875 Z M 22.046875 0.71875 "/></g></g></g><g fill="#000000" fill-opacity="1"><g transform="translate(82.205695, 75.315278)"><g><path d="M 5.453125 0 L 5.453125 -37.8125 L 14.671875 -37.8125 L 14.671875 -32.1875 L 15.390625 -32.0625 C 16.304688 -34.164062 17.503906 -35.707031 18.984375 -36.6875 C 20.472656 -37.664062 22.28125 -38.15625 24.40625 -38.15625 C 26.5625 -38.15625 28.195312 -37.789062 29.3125 -37.0625 L 27.703125 -28.875 L 26.984375 -28.734375 C 26.367188 -28.984375 25.773438 -29.164062 25.203125 -29.28125 C 24.628906 -29.394531 23.929688 -29.453125 23.109375 -29.453125 C 20.453125 -29.453125 18.425781 -28.519531 17.03125 -26.65625 C 15.644531 -24.789062 14.953125 -21.800781 14.953125 -17.6875 L 14.953125 0 Z M 5.453125 0 "/></g></g></g><g fill="#000000" fill-opacity="1"><g transform="translate(111.138626, 75.315278)"><g><path d="M 14.75 0.71875 C 12.320312 0.71875 10.21875 0.273438 8.4375 -0.609375 C 6.65625 -1.503906 5.28125 -2.8125 4.3125 -4.53125 C 3.351562 -6.257812 2.875 -8.335938 2.875 -10.765625 C 2.875 -13.003906 3.351562 -14.882812 4.3125 -16.40625 C 5.28125 -17.925781 6.769531 -19.171875 8.78125 -20.140625 C 10.789062 -21.109375 13.414062 -21.859375 16.65625 -22.390625 C 18.925781 -22.753906 20.648438 -23.148438 21.828125 -23.578125 C 23.003906 -24.015625 23.796875 -24.507812 24.203125 -25.0625 C 24.617188 -25.613281 24.828125 -26.3125 24.828125 -27.15625 C 24.828125 -28.363281 24.398438 -29.285156 23.546875 -29.921875 C 22.703125 -30.566406 21.300781 -30.890625 19.34375 -30.890625 C 17.238281 -30.890625 15.234375 -30.421875 13.328125 -29.484375 C 11.429688 -28.546875 9.789062 -27.3125 8.40625 -25.78125 L 7.71875 -25.78125 L 3.734375 -31.78125 C 5.660156 -33.90625 8.003906 -35.5625 10.765625 -36.75 C 13.535156 -37.9375 16.550781 -38.53125 19.8125 -38.53125 C 24.820312 -38.53125 28.445312 -37.46875 30.6875 -35.34375 C 32.925781 -33.21875 34.046875 -30.203125 34.046875 -26.296875 L 34.046875 -9.875 C 34.046875 -8.1875 34.789062 -7.34375 36.28125 -7.34375 C 36.84375 -7.34375 37.398438 -7.441406 37.953125 -7.640625 L 38.4375 -7.515625 L 39.125 -0.890625 C 38.59375 -0.546875 37.859375 -0.265625 36.921875 -0.046875 C 35.984375 0.171875 34.957031 0.28125 33.84375 0.28125 C 31.582031 0.28125 29.816406 -0.148438 28.546875 -1.015625 C 27.273438 -1.890625 26.363281 -3.253906 25.8125 -5.109375 L 25.09375 -5.171875 C 23.25 -1.242188 19.800781 0.71875 14.75 0.71875 Z M 17.765625 -6.375 C 19.953125 -6.375 21.703125 -7.109375 23.015625 -8.578125 C 24.335938 -10.054688 25 -12.113281 25 -14.75 L 25 -18.578125 L 24.34375 -18.71875 C 23.769531 -18.257812 23.019531 -17.875 22.09375 -17.5625 C 21.164062 -17.257812 19.835938 -16.957031 18.109375 -16.65625 C 16.046875 -16.320312 14.5625 -15.734375 13.65625 -14.890625 C 12.757812 -14.054688 12.3125 -12.875 12.3125 -11.34375 C 12.3125 -9.726562 12.789062 -8.492188 13.75 -7.640625 C 14.707031 -6.796875 16.046875 -6.375 17.765625 -6.375 Z M 17.765625 -6.375 "/></g></g></g><g fill="#000000" fill-opacity="1"><g transform="translate(151.007184, 75.315278)"><g><path d="M 5.453125 15.328125 L 5.453125 -37.8125 L 14.953125 -37.8125 L 14.953125 -32.875 L 15.671875 -32.75 C 16.785156 -34.664062 18.28125 -36.109375 20.15625 -37.078125 C 22.03125 -38.046875 24.226562 -38.53125 26.75 -38.53125 C 29.78125 -38.53125 32.429688 -37.8125 34.703125 -36.375 C 36.984375 -34.9375 38.757812 -32.75 40.03125 -29.8125 C 41.300781 -26.875 41.9375 -23.234375 41.9375 -18.890625 C 41.9375 -14.566406 41.265625 -10.941406 39.921875 -8.015625 C 38.585938 -5.097656 36.734375 -2.910156 34.359375 -1.453125 C 31.984375 -0.00390625 29.238281 0.71875 26.125 0.71875 C 23.769531 0.71875 21.734375 0.328125 20.015625 -0.453125 C 18.304688 -1.242188 16.859375 -2.476562 15.671875 -4.15625 L 14.953125 -4.015625 L 14.953125 15.328125 Z M 23.484375 -7.34375 C 26.316406 -7.34375 28.460938 -8.265625 29.921875 -10.109375 C 31.390625 -11.960938 32.125 -14.890625 32.125 -18.890625 C 32.125 -22.890625 31.390625 -25.820312 29.921875 -27.6875 C 28.460938 -29.550781 26.316406 -30.484375 23.484375 -30.484375 C 20.835938 -30.484375 18.734375 -29.519531 17.171875 -27.59375 C 15.617188 -25.675781 14.84375 -22.773438 14.84375 -18.890625 C 14.84375 -15.023438 15.617188 -12.132812 17.171875 -10.21875 C 18.734375 -8.300781 20.835938 -7.34375 23.484375 -7.34375 Z M 23.484375 -7.34375 "/></g></g></g><g fill="#000000" fill-opacity="1"><g transform="translate(196.292106, 75.315278)"><g><path d="M 37.375 -16.765625 L 13.0625 -16.765625 C 13.332031 -13.472656 14.269531 -11.078125 15.875 -9.578125 C 17.476562 -8.085938 19.660156 -7.34375 22.421875 -7.34375 C 24.597656 -7.34375 26.359375 -7.742188 27.703125 -8.546875 C 29.046875 -9.359375 30.128906 -10.585938 30.953125 -12.234375 L 31.6875 -12.234375 L 37.984375 -8.1875 C 36.753906 -5.539062 34.890625 -3.394531 32.390625 -1.75 C 29.898438 -0.101562 26.578125 0.71875 22.421875 0.71875 C 18.515625 0.71875 15.132812 -0.0195312 12.28125 -1.5 C 9.4375 -2.988281 7.242188 -5.203125 5.703125 -8.140625 C 4.160156 -11.078125 3.390625 -14.660156 3.390625 -18.890625 C 3.390625 -23.191406 4.203125 -26.816406 5.828125 -29.765625 C 7.453125 -32.710938 9.644531 -34.910156 12.40625 -36.359375 C 15.175781 -37.804688 18.285156 -38.53125 21.734375 -38.53125 C 27.085938 -38.53125 31.1875 -37.113281 34.03125 -34.28125 C 36.875 -31.445312 38.296875 -27.289062 38.296875 -21.8125 C 38.296875 -19.820312 38.226562 -18.273438 38.09375 -17.171875 Z M 29.21875 -22.90625 C 29.125 -25.78125 28.453125 -27.875 27.203125 -29.1875 C 25.960938 -30.507812 24.140625 -31.171875 21.734375 -31.171875 C 16.929688 -31.171875 14.109375 -28.414062 13.265625 -22.90625 Z M 29.21875 -22.90625 "/></g></g></g><g fill="#000000" fill-opacity="1"><g transform="translate(237.394772, 75.315278)"><g><path d="M 24 -20.15625 L 2.984375 -20.15625 L 2.984375 -28.53125 L 24 -28.53125 Z M 24 -20.15625 "/></g></g></g><g fill="#000000" fill-opacity="1"><g transform="translate(264.442314, 75.315278)"><g><path d="M 26.4375 0.71875 C 21.613281 0.71875 18.023438 -1.085938 15.671875 -4.703125 L 14.953125 -4.5625 L 14.953125 0 L 5.453125 0 L 5.453125 -53 L 14.953125 -53 L 14.953125 -33.359375 L 15.671875 -33.21875 C 16.972656 -35.03125 18.507812 -36.367188 20.28125 -37.234375 C 22.050781 -38.097656 24.171875 -38.53125 26.640625 -38.53125 C 29.703125 -38.53125 32.375 -37.8125 34.65625 -36.375 C 36.945312 -34.9375 38.734375 -32.75 40.015625 -29.8125 C 41.296875 -26.875 41.9375 -23.234375 41.9375 -18.890625 C 41.9375 -14.597656 41.269531 -10.984375 39.9375 -8.046875 C 38.613281 -5.109375 36.785156 -2.910156 34.453125 -1.453125 C 32.117188 -0.00390625 29.445312 0.71875 26.4375 0.71875 Z M 23.5625 -7.34375 C 26.34375 -7.34375 28.460938 -8.269531 29.921875 -10.125 C 31.390625 -11.988281 32.125 -14.910156 32.125 -18.890625 C 32.125 -22.890625 31.390625 -25.820312 29.921875 -27.6875 C 28.460938 -29.550781 26.34375 -30.484375 23.5625 -30.484375 C 20.882812 -30.484375 18.757812 -29.519531 17.1875 -27.59375 C 15.625 -25.675781 14.84375 -22.773438 14.84375 -18.890625 C 14.84375 -15.003906 15.625 -12.109375 17.1875 -10.203125 C 18.757812 -8.296875 20.882812 -7.34375 23.5625 -7.34375 Z M 23.5625 -7.34375 "/></g></g></g><g fill="#000000" fill-opacity="1"><g transform="translate(309.727255, 75.315278)"><g><path d="M 37.375 -16.765625 L 13.0625 -16.765625 C 13.332031 -13.472656 14.269531 -11.078125 15.875 -9.578125 C 17.476562 -8.085938 19.660156 -7.34375 22.421875 -7.34375 C 24.597656 -7.34375 26.359375 -7.742188 27.703125 -8.546875 C 29.046875 -9.359375 30.128906 -10.585938 30.953125 -12.234375 L 31.6875 -12.234375 L 37.984375 -8.1875 C 36.753906 -5.539062 34.890625 -3.394531 32.390625 -1.75 C 29.898438 -0.101562 26.578125 0.71875 22.421875 0.71875 C 18.515625 0.71875 15.132812 -0.0195312 12.28125 -1.5 C 9.4375 -2.988281 7.242188 -5.203125 5.703125 -8.140625 C 4.160156 -11.078125 3.390625 -14.660156 3.390625 -18.890625 C 3.390625 -23.191406 4.203125 -26.816406 5.828125 -29.765625 C 7.453125 -32.710938 9.644531 -34.910156 12.40625 -36.359375 C 15.175781 -37.804688 18.285156 -38.53125 21.734375 -38.53125 C 27.085938 -38.53125 31.1875 -37.113281 34.03125 -34.28125 C 36.875 -31.445312 38.296875 -27.289062 38.296875 -21.8125 C 38.296875 -19.820312 38.226562 -18.273438 38.09375 -17.171875 Z M 29.21875 -22.90625 C 29.125 -25.78125 28.453125 -27.875 27.203125 -29.1875 C 25.960938 -30.507812 24.140625 -31.171875 21.734375 -31.171875 C 16.929688 -31.171875 14.109375 -28.414062 13.265625 -22.90625 Z M 29.21875 -22.90625 "/></g></g></g><g fill="#000000" fill-opacity="1"><g transform="translate(350.829902, 75.315278)"><g><path d="M 37.375 -16.765625 L 13.0625 -16.765625 C 13.332031 -13.472656 14.269531 -11.078125 15.875 -9.578125 C 17.476562 -8.085938 19.660156 -7.34375 22.421875 -7.34375 C 24.597656 -7.34375 26.359375 -7.742188 27.703125 -8.546875 C 29.046875 -9.359375 30.128906 -10.585938 30.953125 -12.234375 L 31.6875 -12.234375 L 37.984375 -8.1875 C 36.753906 -5.539062 34.890625 -3.394531 32.390625 -1.75 C 29.898438 -0.101562 26.578125 0.71875 22.421875 0.71875 C 18.515625 0.71875 15.132812 -0.0195312 12.28125 -1.5 C 9.4375 -2.988281 7.242188 -5.203125 5.703125 -8.140625 C 4.160156 -11.078125 3.390625 -14.660156 3.390625 -18.890625 C 3.390625 -23.191406 4.203125 -26.816406 5.828125 -29.765625 C 7.453125 -32.710938 9.644531 -34.910156 12.40625 -36.359375 C 15.175781 -37.804688 18.285156 -38.53125 21.734375 -38.53125 C 27.085938 -38.53125 31.1875 -37.113281 34.03125 -34.28125 C 36.875 -31.445312 38.296875 -27.289062 38.296875 -21.8125 C 38.296875 -19.820312 38.226562 -18.273438 38.09375 -17.171875 Z M 29.21875 -22.90625 C 29.125 -25.78125 28.453125 -27.875 27.203125 -29.1875 C 25.960938 -30.507812 24.140625 -31.171875 21.734375 -31.171875 C 16.929688 -31.171875 14.109375 -28.414062 13.265625 -22.90625 Z M 29.21875 -22.90625 "/></g></g></g></g></g></svg>